<mxfile host="app.diagrams.net" modified="2024-03-30T02:39:53.222Z" agent="Mozilla/5.0 (Windows NT 10.0; Win64; x64) AppleWebKit/537.36 (KHTML, like Gecko) Chrome/123.0.0.0 Safari/537.36" etag="Ks93IKBYYdc770D0K7ql" version="24.2.1" type="github">
  <diagram name="Page-1" id="aelsDngfcK3fhKT3PhjA">
    <mxGraphModel dx="1434" dy="1915" grid="1" gridSize="10" guides="1" tooltips="1" connect="1" arrows="1" fold="1" page="1" pageScale="1" pageWidth="827" pageHeight="1169" math="0" shadow="0">
      <root>
        <mxCell id="0" />
        <mxCell id="1" parent="0" />
        <mxCell id="sXXcfoAF_C9Qh14qKNiT-1" value="" style="childLayout=tableLayout;recursiveResize=0;shadow=0;fillColor=none;" vertex="1" parent="1">
          <mxGeometry x="120" y="-480" width="650" height="47" as="geometry" />
        </mxCell>
        <mxCell id="sXXcfoAF_C9Qh14qKNiT-2" value="" style="shape=tableRow;horizontal=0;startSize=0;swimlaneHead=0;swimlaneBody=0;top=0;left=0;bottom=0;right=0;dropTarget=0;collapsible=0;recursiveResize=0;expand=0;fontStyle=0;fillColor=none;strokeColor=inherit;" vertex="1" parent="sXXcfoAF_C9Qh14qKNiT-1">
          <mxGeometry width="650" height="47" as="geometry" />
        </mxCell>
        <mxCell id="sXXcfoAF_C9Qh14qKNiT-3" value="&lt;b&gt;staffID&lt;/b&gt;" style="connectable=0;recursiveResize=0;strokeColor=inherit;fillColor=none;align=center;whiteSpace=wrap;html=1;" vertex="1" parent="sXXcfoAF_C9Qh14qKNiT-2">
          <mxGeometry width="108" height="47" as="geometry">
            <mxRectangle width="108" height="47" as="alternateBounds" />
          </mxGeometry>
        </mxCell>
        <mxCell id="sXXcfoAF_C9Qh14qKNiT-4" value="name" style="connectable=0;recursiveResize=0;strokeColor=inherit;fillColor=none;align=center;whiteSpace=wrap;html=1;" vertex="1" parent="sXXcfoAF_C9Qh14qKNiT-2">
          <mxGeometry x="108" width="109" height="47" as="geometry">
            <mxRectangle width="109" height="47" as="alternateBounds" />
          </mxGeometry>
        </mxCell>
        <mxCell id="sXXcfoAF_C9Qh14qKNiT-5" value="experience" style="connectable=0;recursiveResize=0;strokeColor=inherit;fillColor=none;align=center;whiteSpace=wrap;html=1;" vertex="1" parent="sXXcfoAF_C9Qh14qKNiT-2">
          <mxGeometry x="217" width="108" height="47" as="geometry">
            <mxRectangle width="108" height="47" as="alternateBounds" />
          </mxGeometry>
        </mxCell>
        <mxCell id="sXXcfoAF_C9Qh14qKNiT-98" value="qualifications" style="connectable=0;recursiveResize=0;strokeColor=inherit;fillColor=none;align=center;whiteSpace=wrap;html=1;" vertex="1" parent="sXXcfoAF_C9Qh14qKNiT-2">
          <mxGeometry x="325" width="108" height="47" as="geometry">
            <mxRectangle width="108" height="47" as="alternateBounds" />
          </mxGeometry>
        </mxCell>
        <mxCell id="sXXcfoAF_C9Qh14qKNiT-97" value="contactinformation" style="connectable=0;recursiveResize=0;strokeColor=inherit;fillColor=none;align=center;whiteSpace=wrap;html=1;" vertex="1" parent="sXXcfoAF_C9Qh14qKNiT-2">
          <mxGeometry x="433" width="109" height="47" as="geometry">
            <mxRectangle width="109" height="47" as="alternateBounds" />
          </mxGeometry>
        </mxCell>
        <mxCell id="sXXcfoAF_C9Qh14qKNiT-96" value="location" style="connectable=0;recursiveResize=0;strokeColor=inherit;fillColor=none;align=center;whiteSpace=wrap;html=1;" vertex="1" parent="sXXcfoAF_C9Qh14qKNiT-2">
          <mxGeometry x="542" width="108" height="47" as="geometry">
            <mxRectangle width="108" height="47" as="alternateBounds" />
          </mxGeometry>
        </mxCell>
        <mxCell id="sXXcfoAF_C9Qh14qKNiT-14" value="" style="childLayout=tableLayout;recursiveResize=0;shadow=0;fillColor=none;" vertex="1" parent="1">
          <mxGeometry x="120" y="-360" width="250" height="47" as="geometry" />
        </mxCell>
        <mxCell id="sXXcfoAF_C9Qh14qKNiT-15" value="" style="shape=tableRow;horizontal=0;startSize=0;swimlaneHead=0;swimlaneBody=0;top=0;left=0;bottom=0;right=0;dropTarget=0;collapsible=0;recursiveResize=0;expand=0;fontStyle=0;fillColor=none;strokeColor=inherit;" vertex="1" parent="sXXcfoAF_C9Qh14qKNiT-14">
          <mxGeometry width="250" height="47" as="geometry" />
        </mxCell>
        <mxCell id="sXXcfoAF_C9Qh14qKNiT-16" value="&lt;b&gt;&lt;u&gt;staffID&lt;/u&gt;&lt;/b&gt;" style="connectable=0;recursiveResize=0;strokeColor=inherit;fillColor=none;align=center;whiteSpace=wrap;html=1;" vertex="1" parent="sXXcfoAF_C9Qh14qKNiT-15">
          <mxGeometry width="125" height="47" as="geometry">
            <mxRectangle width="125" height="47" as="alternateBounds" />
          </mxGeometry>
        </mxCell>
        <mxCell id="sXXcfoAF_C9Qh14qKNiT-17" value="&lt;b&gt;&lt;u&gt;specialisationTypeID&lt;/u&gt;&lt;/b&gt;" style="connectable=0;recursiveResize=0;strokeColor=inherit;fillColor=none;align=center;whiteSpace=wrap;html=1;" vertex="1" parent="sXXcfoAF_C9Qh14qKNiT-15">
          <mxGeometry x="125" width="125" height="47" as="geometry">
            <mxRectangle width="125" height="47" as="alternateBounds" />
          </mxGeometry>
        </mxCell>
        <mxCell id="sXXcfoAF_C9Qh14qKNiT-19" value="" style="childLayout=tableLayout;recursiveResize=0;shadow=0;fillColor=none;" vertex="1" parent="1">
          <mxGeometry x="120" y="-230" width="360" height="47" as="geometry" />
        </mxCell>
        <mxCell id="sXXcfoAF_C9Qh14qKNiT-20" value="" style="shape=tableRow;horizontal=0;startSize=0;swimlaneHead=0;swimlaneBody=0;top=0;left=0;bottom=0;right=0;dropTarget=0;collapsible=0;recursiveResize=0;expand=0;fontStyle=0;fillColor=none;strokeColor=inherit;" vertex="1" parent="sXXcfoAF_C9Qh14qKNiT-19">
          <mxGeometry width="360" height="47" as="geometry" />
        </mxCell>
        <mxCell id="sXXcfoAF_C9Qh14qKNiT-21" value="specialisationTypeID" style="connectable=0;recursiveResize=0;strokeColor=inherit;fillColor=none;align=center;whiteSpace=wrap;html=1;" vertex="1" parent="sXXcfoAF_C9Qh14qKNiT-20">
          <mxGeometry width="120" height="47" as="geometry">
            <mxRectangle width="120" height="47" as="alternateBounds" />
          </mxGeometry>
        </mxCell>
        <mxCell id="sXXcfoAF_C9Qh14qKNiT-22" value="name" style="connectable=0;recursiveResize=0;strokeColor=inherit;fillColor=none;align=center;whiteSpace=wrap;html=1;" vertex="1" parent="sXXcfoAF_C9Qh14qKNiT-20">
          <mxGeometry x="120" width="120" height="47" as="geometry">
            <mxRectangle width="120" height="47" as="alternateBounds" />
          </mxGeometry>
        </mxCell>
        <mxCell id="sXXcfoAF_C9Qh14qKNiT-23" value="description" style="connectable=0;recursiveResize=0;strokeColor=inherit;fillColor=none;align=center;whiteSpace=wrap;html=1;" vertex="1" parent="sXXcfoAF_C9Qh14qKNiT-20">
          <mxGeometry x="240" width="120" height="47" as="geometry">
            <mxRectangle width="120" height="47" as="alternateBounds" />
          </mxGeometry>
        </mxCell>
        <mxCell id="sXXcfoAF_C9Qh14qKNiT-24" value="" style="childLayout=tableLayout;recursiveResize=0;shadow=0;fillColor=none;" vertex="1" parent="1">
          <mxGeometry x="120" y="-100" width="290" height="47" as="geometry" />
        </mxCell>
        <mxCell id="sXXcfoAF_C9Qh14qKNiT-25" value="" style="shape=tableRow;horizontal=0;startSize=0;swimlaneHead=0;swimlaneBody=0;top=0;left=0;bottom=0;right=0;dropTarget=0;collapsible=0;recursiveResize=0;expand=0;fontStyle=0;fillColor=none;strokeColor=inherit;" vertex="1" parent="sXXcfoAF_C9Qh14qKNiT-24">
          <mxGeometry width="290" height="47" as="geometry" />
        </mxCell>
        <mxCell id="sXXcfoAF_C9Qh14qKNiT-26" value="centerID" style="connectable=0;recursiveResize=0;strokeColor=inherit;fillColor=none;align=center;whiteSpace=wrap;html=1;" vertex="1" parent="sXXcfoAF_C9Qh14qKNiT-25">
          <mxGeometry width="97" height="47" as="geometry">
            <mxRectangle width="97" height="47" as="alternateBounds" />
          </mxGeometry>
        </mxCell>
        <mxCell id="sXXcfoAF_C9Qh14qKNiT-27" value="name" style="connectable=0;recursiveResize=0;strokeColor=inherit;fillColor=none;align=center;whiteSpace=wrap;html=1;" vertex="1" parent="sXXcfoAF_C9Qh14qKNiT-25">
          <mxGeometry x="97" width="96" height="47" as="geometry">
            <mxRectangle width="96" height="47" as="alternateBounds" />
          </mxGeometry>
        </mxCell>
        <mxCell id="sXXcfoAF_C9Qh14qKNiT-28" value="location" style="connectable=0;recursiveResize=0;strokeColor=inherit;fillColor=none;align=center;whiteSpace=wrap;html=1;" vertex="1" parent="sXXcfoAF_C9Qh14qKNiT-25">
          <mxGeometry x="193" width="97" height="47" as="geometry">
            <mxRectangle width="97" height="47" as="alternateBounds" />
          </mxGeometry>
        </mxCell>
        <mxCell id="sXXcfoAF_C9Qh14qKNiT-29" value="" style="childLayout=tableLayout;recursiveResize=0;shadow=0;fillColor=none;" vertex="1" parent="1">
          <mxGeometry x="120" y="20" width="200" height="47" as="geometry" />
        </mxCell>
        <mxCell id="sXXcfoAF_C9Qh14qKNiT-30" value="" style="shape=tableRow;horizontal=0;startSize=0;swimlaneHead=0;swimlaneBody=0;top=0;left=0;bottom=0;right=0;dropTarget=0;collapsible=0;recursiveResize=0;expand=0;fontStyle=0;fillColor=none;strokeColor=inherit;" vertex="1" parent="sXXcfoAF_C9Qh14qKNiT-29">
          <mxGeometry width="200" height="47" as="geometry" />
        </mxCell>
        <mxCell id="sXXcfoAF_C9Qh14qKNiT-31" value="centerID" style="connectable=0;recursiveResize=0;strokeColor=inherit;fillColor=none;align=center;whiteSpace=wrap;html=1;" vertex="1" parent="sXXcfoAF_C9Qh14qKNiT-30">
          <mxGeometry width="100" height="47" as="geometry">
            <mxRectangle width="100" height="47" as="alternateBounds" />
          </mxGeometry>
        </mxCell>
        <mxCell id="sXXcfoAF_C9Qh14qKNiT-32" value="therapyTypeID" style="connectable=0;recursiveResize=0;strokeColor=inherit;fillColor=none;align=center;whiteSpace=wrap;html=1;" vertex="1" parent="sXXcfoAF_C9Qh14qKNiT-30">
          <mxGeometry x="100" width="100" height="47" as="geometry">
            <mxRectangle width="100" height="47" as="alternateBounds" />
          </mxGeometry>
        </mxCell>
        <mxCell id="sXXcfoAF_C9Qh14qKNiT-34" value="" style="childLayout=tableLayout;recursiveResize=0;shadow=0;fillColor=none;" vertex="1" parent="1">
          <mxGeometry x="120" y="160" width="610" height="47" as="geometry" />
        </mxCell>
        <mxCell id="sXXcfoAF_C9Qh14qKNiT-35" value="" style="shape=tableRow;horizontal=0;startSize=0;swimlaneHead=0;swimlaneBody=0;top=0;left=0;bottom=0;right=0;dropTarget=0;collapsible=0;recursiveResize=0;expand=0;fontStyle=0;fillColor=none;strokeColor=inherit;" vertex="1" parent="sXXcfoAF_C9Qh14qKNiT-34">
          <mxGeometry width="610" height="47" as="geometry" />
        </mxCell>
        <mxCell id="sXXcfoAF_C9Qh14qKNiT-36" value="therapyTypeID" style="connectable=0;recursiveResize=0;strokeColor=inherit;fillColor=none;align=center;whiteSpace=wrap;html=1;" vertex="1" parent="sXXcfoAF_C9Qh14qKNiT-35">
          <mxGeometry width="122" height="47" as="geometry">
            <mxRectangle width="122" height="47" as="alternateBounds" />
          </mxGeometry>
        </mxCell>
        <mxCell id="sXXcfoAF_C9Qh14qKNiT-37" value="type" style="connectable=0;recursiveResize=0;strokeColor=inherit;fillColor=none;align=center;whiteSpace=wrap;html=1;" vertex="1" parent="sXXcfoAF_C9Qh14qKNiT-35">
          <mxGeometry x="122" width="122" height="47" as="geometry">
            <mxRectangle width="122" height="47" as="alternateBounds" />
          </mxGeometry>
        </mxCell>
        <mxCell id="sXXcfoAF_C9Qh14qKNiT-38" value="cost" style="connectable=0;recursiveResize=0;strokeColor=inherit;fillColor=none;align=center;whiteSpace=wrap;html=1;" vertex="1" parent="sXXcfoAF_C9Qh14qKNiT-35">
          <mxGeometry x="244" width="122" height="47" as="geometry">
            <mxRectangle width="122" height="47" as="alternateBounds" />
          </mxGeometry>
        </mxCell>
        <mxCell id="sXXcfoAF_C9Qh14qKNiT-100" value="demand" style="connectable=0;recursiveResize=0;strokeColor=inherit;fillColor=none;align=center;whiteSpace=wrap;html=1;" vertex="1" parent="sXXcfoAF_C9Qh14qKNiT-35">
          <mxGeometry x="366" width="122" height="47" as="geometry">
            <mxRectangle width="122" height="47" as="alternateBounds" />
          </mxGeometry>
        </mxCell>
        <mxCell id="sXXcfoAF_C9Qh14qKNiT-101" value="specialisationTypeID" style="connectable=0;recursiveResize=0;strokeColor=inherit;fillColor=none;align=center;whiteSpace=wrap;html=1;" vertex="1" parent="sXXcfoAF_C9Qh14qKNiT-35">
          <mxGeometry x="488" width="122" height="47" as="geometry">
            <mxRectangle width="122" height="47" as="alternateBounds" />
          </mxGeometry>
        </mxCell>
        <mxCell id="sXXcfoAF_C9Qh14qKNiT-39" value="" style="childLayout=tableLayout;recursiveResize=0;shadow=0;fillColor=none;" vertex="1" parent="1">
          <mxGeometry x="120" y="290" width="220" height="47" as="geometry" />
        </mxCell>
        <mxCell id="sXXcfoAF_C9Qh14qKNiT-40" value="" style="shape=tableRow;horizontal=0;startSize=0;swimlaneHead=0;swimlaneBody=0;top=0;left=0;bottom=0;right=0;dropTarget=0;collapsible=0;recursiveResize=0;expand=0;fontStyle=0;fillColor=none;strokeColor=inherit;" vertex="1" parent="sXXcfoAF_C9Qh14qKNiT-39">
          <mxGeometry width="220" height="47" as="geometry" />
        </mxCell>
        <mxCell id="sXXcfoAF_C9Qh14qKNiT-41" value="therapyTypeID" style="connectable=0;recursiveResize=0;strokeColor=inherit;fillColor=none;align=center;whiteSpace=wrap;html=1;" vertex="1" parent="sXXcfoAF_C9Qh14qKNiT-40">
          <mxGeometry width="110" height="47" as="geometry">
            <mxRectangle width="110" height="47" as="alternateBounds" />
          </mxGeometry>
        </mxCell>
        <mxCell id="sXXcfoAF_C9Qh14qKNiT-42" value="equipmentID" style="connectable=0;recursiveResize=0;strokeColor=inherit;fillColor=none;align=center;whiteSpace=wrap;html=1;" vertex="1" parent="sXXcfoAF_C9Qh14qKNiT-40">
          <mxGeometry x="110" width="110" height="47" as="geometry">
            <mxRectangle width="110" height="47" as="alternateBounds" />
          </mxGeometry>
        </mxCell>
        <mxCell id="sXXcfoAF_C9Qh14qKNiT-44" value="" style="childLayout=tableLayout;recursiveResize=0;shadow=0;fillColor=none;" vertex="1" parent="1">
          <mxGeometry x="120" y="1380" width="290" height="47" as="geometry" />
        </mxCell>
        <mxCell id="sXXcfoAF_C9Qh14qKNiT-45" value="" style="shape=tableRow;horizontal=0;startSize=0;swimlaneHead=0;swimlaneBody=0;top=0;left=0;bottom=0;right=0;dropTarget=0;collapsible=0;recursiveResize=0;expand=0;fontStyle=0;fillColor=none;strokeColor=inherit;" vertex="1" parent="sXXcfoAF_C9Qh14qKNiT-44">
          <mxGeometry width="290" height="47" as="geometry" />
        </mxCell>
        <mxCell id="sXXcfoAF_C9Qh14qKNiT-46" value="allergyID" style="connectable=0;recursiveResize=0;strokeColor=inherit;fillColor=none;align=center;whiteSpace=wrap;html=1;" vertex="1" parent="sXXcfoAF_C9Qh14qKNiT-45">
          <mxGeometry width="97" height="47" as="geometry">
            <mxRectangle width="97" height="47" as="alternateBounds" />
          </mxGeometry>
        </mxCell>
        <mxCell id="sXXcfoAF_C9Qh14qKNiT-47" value="name" style="connectable=0;recursiveResize=0;strokeColor=inherit;fillColor=none;align=center;whiteSpace=wrap;html=1;" vertex="1" parent="sXXcfoAF_C9Qh14qKNiT-45">
          <mxGeometry x="97" width="96" height="47" as="geometry">
            <mxRectangle width="96" height="47" as="alternateBounds" />
          </mxGeometry>
        </mxCell>
        <mxCell id="sXXcfoAF_C9Qh14qKNiT-48" value="description" style="connectable=0;recursiveResize=0;strokeColor=inherit;fillColor=none;align=center;whiteSpace=wrap;html=1;" vertex="1" parent="sXXcfoAF_C9Qh14qKNiT-45">
          <mxGeometry x="193" width="97" height="47" as="geometry">
            <mxRectangle width="97" height="47" as="alternateBounds" />
          </mxGeometry>
        </mxCell>
        <mxCell id="sXXcfoAF_C9Qh14qKNiT-49" value="" style="childLayout=tableLayout;recursiveResize=0;shadow=0;fillColor=none;" vertex="1" parent="1">
          <mxGeometry x="120" y="1220" width="120" height="47" as="geometry" />
        </mxCell>
        <mxCell id="sXXcfoAF_C9Qh14qKNiT-50" value="" style="shape=tableRow;horizontal=0;startSize=0;swimlaneHead=0;swimlaneBody=0;top=0;left=0;bottom=0;right=0;dropTarget=0;collapsible=0;recursiveResize=0;expand=0;fontStyle=0;fillColor=none;strokeColor=inherit;" vertex="1" parent="sXXcfoAF_C9Qh14qKNiT-49">
          <mxGeometry width="120" height="47" as="geometry" />
        </mxCell>
        <mxCell id="sXXcfoAF_C9Qh14qKNiT-51" value="clientID" style="connectable=0;recursiveResize=0;strokeColor=inherit;fillColor=none;align=center;whiteSpace=wrap;html=1;" vertex="1" parent="sXXcfoAF_C9Qh14qKNiT-50">
          <mxGeometry width="60" height="47" as="geometry">
            <mxRectangle width="60" height="47" as="alternateBounds" />
          </mxGeometry>
        </mxCell>
        <mxCell id="sXXcfoAF_C9Qh14qKNiT-52" value="allergyID" style="connectable=0;recursiveResize=0;strokeColor=inherit;fillColor=none;align=center;whiteSpace=wrap;html=1;" vertex="1" parent="sXXcfoAF_C9Qh14qKNiT-50">
          <mxGeometry x="60" width="60" height="47" as="geometry">
            <mxRectangle width="60" height="47" as="alternateBounds" />
          </mxGeometry>
        </mxCell>
        <mxCell id="sXXcfoAF_C9Qh14qKNiT-54" value="" style="childLayout=tableLayout;recursiveResize=0;shadow=0;fillColor=none;" vertex="1" parent="1">
          <mxGeometry x="120" y="420" width="400" height="47" as="geometry" />
        </mxCell>
        <mxCell id="sXXcfoAF_C9Qh14qKNiT-55" value="" style="shape=tableRow;horizontal=0;startSize=0;swimlaneHead=0;swimlaneBody=0;top=0;left=0;bottom=0;right=0;dropTarget=0;collapsible=0;recursiveResize=0;expand=0;fontStyle=0;fillColor=none;strokeColor=inherit;" vertex="1" parent="sXXcfoAF_C9Qh14qKNiT-54">
          <mxGeometry width="400" height="47" as="geometry" />
        </mxCell>
        <mxCell id="sXXcfoAF_C9Qh14qKNiT-56" value="equipmentID" style="connectable=0;recursiveResize=0;strokeColor=inherit;fillColor=none;align=center;whiteSpace=wrap;html=1;" vertex="1" parent="sXXcfoAF_C9Qh14qKNiT-55">
          <mxGeometry width="100" height="47" as="geometry">
            <mxRectangle width="100" height="47" as="alternateBounds" />
          </mxGeometry>
        </mxCell>
        <mxCell id="sXXcfoAF_C9Qh14qKNiT-57" value="name" style="connectable=0;recursiveResize=0;strokeColor=inherit;fillColor=none;align=center;whiteSpace=wrap;html=1;" vertex="1" parent="sXXcfoAF_C9Qh14qKNiT-55">
          <mxGeometry x="100" width="100" height="47" as="geometry">
            <mxRectangle width="100" height="47" as="alternateBounds" />
          </mxGeometry>
        </mxCell>
        <mxCell id="sXXcfoAF_C9Qh14qKNiT-58" value="servicingPeriod" style="connectable=0;recursiveResize=0;strokeColor=inherit;fillColor=none;align=center;whiteSpace=wrap;html=1;" vertex="1" parent="sXXcfoAF_C9Qh14qKNiT-55">
          <mxGeometry x="200" width="100" height="47" as="geometry">
            <mxRectangle width="100" height="47" as="alternateBounds" />
          </mxGeometry>
        </mxCell>
        <mxCell id="sXXcfoAF_C9Qh14qKNiT-102" value="description" style="connectable=0;recursiveResize=0;strokeColor=inherit;fillColor=none;align=center;whiteSpace=wrap;html=1;" vertex="1" parent="sXXcfoAF_C9Qh14qKNiT-55">
          <mxGeometry x="300" width="100" height="47" as="geometry">
            <mxRectangle width="100" height="47" as="alternateBounds" />
          </mxGeometry>
        </mxCell>
        <mxCell id="sXXcfoAF_C9Qh14qKNiT-59" value="" style="childLayout=tableLayout;recursiveResize=0;shadow=0;fillColor=none;" vertex="1" parent="1">
          <mxGeometry x="120" y="570" width="430" height="47" as="geometry" />
        </mxCell>
        <mxCell id="sXXcfoAF_C9Qh14qKNiT-60" value="" style="shape=tableRow;horizontal=0;startSize=0;swimlaneHead=0;swimlaneBody=0;top=0;left=0;bottom=0;right=0;dropTarget=0;collapsible=0;recursiveResize=0;expand=0;fontStyle=0;fillColor=none;strokeColor=inherit;" vertex="1" parent="sXXcfoAF_C9Qh14qKNiT-59">
          <mxGeometry width="430" height="47" as="geometry" />
        </mxCell>
        <mxCell id="sXXcfoAF_C9Qh14qKNiT-61" value="centerID" style="connectable=0;recursiveResize=0;strokeColor=inherit;fillColor=none;align=center;whiteSpace=wrap;html=1;" vertex="1" parent="sXXcfoAF_C9Qh14qKNiT-60">
          <mxGeometry width="86" height="47" as="geometry">
            <mxRectangle width="86" height="47" as="alternateBounds" />
          </mxGeometry>
        </mxCell>
        <mxCell id="sXXcfoAF_C9Qh14qKNiT-62" value="equipmentID" style="connectable=0;recursiveResize=0;strokeColor=inherit;fillColor=none;align=center;whiteSpace=wrap;html=1;" vertex="1" parent="sXXcfoAF_C9Qh14qKNiT-60">
          <mxGeometry x="86" width="86" height="47" as="geometry">
            <mxRectangle width="86" height="47" as="alternateBounds" />
          </mxGeometry>
        </mxCell>
        <mxCell id="sXXcfoAF_C9Qh14qKNiT-63" value="availability" style="connectable=0;recursiveResize=0;strokeColor=inherit;fillColor=none;align=center;whiteSpace=wrap;html=1;" vertex="1" parent="sXXcfoAF_C9Qh14qKNiT-60">
          <mxGeometry x="172" width="86" height="47" as="geometry">
            <mxRectangle width="86" height="47" as="alternateBounds" />
          </mxGeometry>
        </mxCell>
        <mxCell id="sXXcfoAF_C9Qh14qKNiT-103" value="state" style="connectable=0;recursiveResize=0;strokeColor=inherit;fillColor=none;align=center;whiteSpace=wrap;html=1;" vertex="1" parent="sXXcfoAF_C9Qh14qKNiT-60">
          <mxGeometry x="258" width="86" height="47" as="geometry">
            <mxRectangle width="86" height="47" as="alternateBounds" />
          </mxGeometry>
        </mxCell>
        <mxCell id="sXXcfoAF_C9Qh14qKNiT-104" value="quantity" style="connectable=0;recursiveResize=0;strokeColor=inherit;fillColor=none;align=center;whiteSpace=wrap;html=1;" vertex="1" parent="sXXcfoAF_C9Qh14qKNiT-60">
          <mxGeometry x="344" width="86" height="47" as="geometry">
            <mxRectangle width="86" height="47" as="alternateBounds" />
          </mxGeometry>
        </mxCell>
        <mxCell id="sXXcfoAF_C9Qh14qKNiT-64" value="" style="childLayout=tableLayout;recursiveResize=0;shadow=0;fillColor=none;" vertex="1" parent="1">
          <mxGeometry x="120" y="730" width="640" height="47" as="geometry" />
        </mxCell>
        <mxCell id="sXXcfoAF_C9Qh14qKNiT-65" value="" style="shape=tableRow;horizontal=0;startSize=0;swimlaneHead=0;swimlaneBody=0;top=0;left=0;bottom=0;right=0;dropTarget=0;collapsible=0;recursiveResize=0;expand=0;fontStyle=0;fillColor=none;strokeColor=inherit;" vertex="1" parent="sXXcfoAF_C9Qh14qKNiT-64">
          <mxGeometry width="640" height="47" as="geometry" />
        </mxCell>
        <mxCell id="sXXcfoAF_C9Qh14qKNiT-66" value="appointmentID" style="connectable=0;recursiveResize=0;strokeColor=inherit;fillColor=none;align=center;whiteSpace=wrap;html=1;" vertex="1" parent="sXXcfoAF_C9Qh14qKNiT-65">
          <mxGeometry width="92" height="47" as="geometry">
            <mxRectangle width="92" height="47" as="alternateBounds" />
          </mxGeometry>
        </mxCell>
        <mxCell id="sXXcfoAF_C9Qh14qKNiT-67" value="date" style="connectable=0;recursiveResize=0;strokeColor=inherit;fillColor=none;align=center;whiteSpace=wrap;html=1;" vertex="1" parent="sXXcfoAF_C9Qh14qKNiT-65">
          <mxGeometry x="92" width="91" height="47" as="geometry">
            <mxRectangle width="91" height="47" as="alternateBounds" />
          </mxGeometry>
        </mxCell>
        <mxCell id="sXXcfoAF_C9Qh14qKNiT-68" value="description" style="connectable=0;recursiveResize=0;strokeColor=inherit;fillColor=none;align=center;whiteSpace=wrap;html=1;" vertex="1" parent="sXXcfoAF_C9Qh14qKNiT-65">
          <mxGeometry x="183" width="92" height="47" as="geometry">
            <mxRectangle width="92" height="47" as="alternateBounds" />
          </mxGeometry>
        </mxCell>
        <mxCell id="sXXcfoAF_C9Qh14qKNiT-105" value="centerID" style="connectable=0;recursiveResize=0;strokeColor=inherit;fillColor=none;align=center;whiteSpace=wrap;html=1;" vertex="1" parent="sXXcfoAF_C9Qh14qKNiT-65">
          <mxGeometry x="275" width="90" height="47" as="geometry">
            <mxRectangle width="90" height="47" as="alternateBounds" />
          </mxGeometry>
        </mxCell>
        <mxCell id="sXXcfoAF_C9Qh14qKNiT-106" value="therapyTypeID" style="connectable=0;recursiveResize=0;strokeColor=inherit;fillColor=none;align=center;whiteSpace=wrap;html=1;" vertex="1" parent="sXXcfoAF_C9Qh14qKNiT-65">
          <mxGeometry x="365" width="92" height="47" as="geometry">
            <mxRectangle width="92" height="47" as="alternateBounds" />
          </mxGeometry>
        </mxCell>
        <mxCell id="sXXcfoAF_C9Qh14qKNiT-107" value="clientID" style="connectable=0;recursiveResize=0;strokeColor=inherit;fillColor=none;align=center;whiteSpace=wrap;html=1;" vertex="1" parent="sXXcfoAF_C9Qh14qKNiT-65">
          <mxGeometry x="457" width="91" height="47" as="geometry">
            <mxRectangle width="91" height="47" as="alternateBounds" />
          </mxGeometry>
        </mxCell>
        <mxCell id="sXXcfoAF_C9Qh14qKNiT-108" value="therapistID" style="connectable=0;recursiveResize=0;strokeColor=inherit;fillColor=none;align=center;whiteSpace=wrap;html=1;" vertex="1" parent="sXXcfoAF_C9Qh14qKNiT-65">
          <mxGeometry x="548" width="92" height="47" as="geometry">
            <mxRectangle width="92" height="47" as="alternateBounds" />
          </mxGeometry>
        </mxCell>
        <mxCell id="sXXcfoAF_C9Qh14qKNiT-69" value="" style="childLayout=tableLayout;recursiveResize=0;shadow=0;fillColor=none;" vertex="1" parent="1">
          <mxGeometry x="120" y="880" width="490" height="47" as="geometry" />
        </mxCell>
        <mxCell id="sXXcfoAF_C9Qh14qKNiT-70" value="" style="shape=tableRow;horizontal=0;startSize=0;swimlaneHead=0;swimlaneBody=0;top=0;left=0;bottom=0;right=0;dropTarget=0;collapsible=0;recursiveResize=0;expand=0;fontStyle=0;fillColor=none;strokeColor=inherit;" vertex="1" parent="sXXcfoAF_C9Qh14qKNiT-69">
          <mxGeometry width="490" height="47" as="geometry" />
        </mxCell>
        <mxCell id="sXXcfoAF_C9Qh14qKNiT-71" value="messageID" style="connectable=0;recursiveResize=0;strokeColor=inherit;fillColor=none;align=center;whiteSpace=wrap;html=1;" vertex="1" parent="sXXcfoAF_C9Qh14qKNiT-70">
          <mxGeometry width="98" height="47" as="geometry">
            <mxRectangle width="98" height="47" as="alternateBounds" />
          </mxGeometry>
        </mxCell>
        <mxCell id="sXXcfoAF_C9Qh14qKNiT-72" value="dateStamp" style="connectable=0;recursiveResize=0;strokeColor=inherit;fillColor=none;align=center;whiteSpace=wrap;html=1;" vertex="1" parent="sXXcfoAF_C9Qh14qKNiT-70">
          <mxGeometry x="98" width="98" height="47" as="geometry">
            <mxRectangle width="98" height="47" as="alternateBounds" />
          </mxGeometry>
        </mxCell>
        <mxCell id="sXXcfoAF_C9Qh14qKNiT-73" value="eventMessage" style="connectable=0;recursiveResize=0;strokeColor=inherit;fillColor=none;align=center;whiteSpace=wrap;html=1;" vertex="1" parent="sXXcfoAF_C9Qh14qKNiT-70">
          <mxGeometry x="196" width="98" height="47" as="geometry">
            <mxRectangle width="98" height="47" as="alternateBounds" />
          </mxGeometry>
        </mxCell>
        <mxCell id="sXXcfoAF_C9Qh14qKNiT-109" value="recipient" style="connectable=0;recursiveResize=0;strokeColor=inherit;fillColor=none;align=center;whiteSpace=wrap;html=1;" vertex="1" parent="sXXcfoAF_C9Qh14qKNiT-70">
          <mxGeometry x="294" width="98" height="47" as="geometry">
            <mxRectangle width="98" height="47" as="alternateBounds" />
          </mxGeometry>
        </mxCell>
        <mxCell id="sXXcfoAF_C9Qh14qKNiT-110" value="appointmentID" style="connectable=0;recursiveResize=0;strokeColor=inherit;fillColor=none;align=center;whiteSpace=wrap;html=1;" vertex="1" parent="sXXcfoAF_C9Qh14qKNiT-70">
          <mxGeometry x="392" width="98" height="47" as="geometry">
            <mxRectangle width="98" height="47" as="alternateBounds" />
          </mxGeometry>
        </mxCell>
        <mxCell id="sXXcfoAF_C9Qh14qKNiT-74" value="" style="childLayout=tableLayout;recursiveResize=0;shadow=0;fillColor=none;" vertex="1" parent="1">
          <mxGeometry x="120" y="1050" width="640" height="47" as="geometry" />
        </mxCell>
        <mxCell id="sXXcfoAF_C9Qh14qKNiT-75" value="" style="shape=tableRow;horizontal=0;startSize=0;swimlaneHead=0;swimlaneBody=0;top=0;left=0;bottom=0;right=0;dropTarget=0;collapsible=0;recursiveResize=0;expand=0;fontStyle=0;fillColor=none;strokeColor=inherit;" vertex="1" parent="sXXcfoAF_C9Qh14qKNiT-74">
          <mxGeometry width="640" height="47" as="geometry" />
        </mxCell>
        <mxCell id="sXXcfoAF_C9Qh14qKNiT-76" value="clientID" style="connectable=0;recursiveResize=0;strokeColor=inherit;fillColor=none;align=center;whiteSpace=wrap;html=1;" vertex="1" parent="sXXcfoAF_C9Qh14qKNiT-75">
          <mxGeometry width="107" height="47" as="geometry">
            <mxRectangle width="107" height="47" as="alternateBounds" />
          </mxGeometry>
        </mxCell>
        <mxCell id="sXXcfoAF_C9Qh14qKNiT-77" value="firstname" style="connectable=0;recursiveResize=0;strokeColor=inherit;fillColor=none;align=center;whiteSpace=wrap;html=1;" vertex="1" parent="sXXcfoAF_C9Qh14qKNiT-75">
          <mxGeometry x="107" width="106" height="47" as="geometry">
            <mxRectangle width="106" height="47" as="alternateBounds" />
          </mxGeometry>
        </mxCell>
        <mxCell id="sXXcfoAF_C9Qh14qKNiT-78" value="lastname" style="connectable=0;recursiveResize=0;strokeColor=inherit;fillColor=none;align=center;whiteSpace=wrap;html=1;" vertex="1" parent="sXXcfoAF_C9Qh14qKNiT-75">
          <mxGeometry x="213" width="107" height="47" as="geometry">
            <mxRectangle width="107" height="47" as="alternateBounds" />
          </mxGeometry>
        </mxCell>
        <mxCell id="sXXcfoAF_C9Qh14qKNiT-111" value="dateOfBirth" style="connectable=0;recursiveResize=0;strokeColor=inherit;fillColor=none;align=center;whiteSpace=wrap;html=1;" vertex="1" parent="sXXcfoAF_C9Qh14qKNiT-75">
          <mxGeometry x="320" width="107" height="47" as="geometry">
            <mxRectangle width="107" height="47" as="alternateBounds" />
          </mxGeometry>
        </mxCell>
        <mxCell id="sXXcfoAF_C9Qh14qKNiT-112" value="phone" style="connectable=0;recursiveResize=0;strokeColor=inherit;fillColor=none;align=center;whiteSpace=wrap;html=1;" vertex="1" parent="sXXcfoAF_C9Qh14qKNiT-75">
          <mxGeometry x="427" width="106" height="47" as="geometry">
            <mxRectangle width="106" height="47" as="alternateBounds" />
          </mxGeometry>
        </mxCell>
        <mxCell id="sXXcfoAF_C9Qh14qKNiT-113" value="emergencyContactPhone" style="connectable=0;recursiveResize=0;strokeColor=inherit;fillColor=none;align=center;whiteSpace=wrap;html=1;" vertex="1" parent="sXXcfoAF_C9Qh14qKNiT-75">
          <mxGeometry x="533" width="107" height="47" as="geometry">
            <mxRectangle width="107" height="47" as="alternateBounds" />
          </mxGeometry>
        </mxCell>
      </root>
    </mxGraphModel>
  </diagram>
</mxfile>
